# xmcd CD database file
#
# Track frame offsets:
#	150
#	16343
#	32458
#	47550
#	65253
#	80135
#	92228
#	121545
#	138463
#	157943
#	173310
#	193280
#	202835
#	219305
#	231690
#	244613
#	260728
#	277600
#
# Disc length: 3890 seconds
#
# Revision: 0
# Processed by: cddbd v1.5PL3 Copyright (c) Steve Scherf et al.
# Submitted via: CDex 1.50
#
DISCID=ea0f3012
DTITLE=Duke Jordan - Solo Piano - One for the Library
DYEAR=1994
DGENRE=Jazz
TTITLE0=No Problem
TTITLE1=They Can't Take That Away From Me
TTITLE2=Lush Life
TTITLE3=Everything Happens To Me
TTITLE4=All The Things You Are
TTITLE5=The Way You Look Tonight
TTITLE6=Jor-Du
TTITLE7=Tea For Two - Star Dust
TTITLE8=Yesterdays
TTITLE9=Flight To Jordan
TTITLE10=Misty
TTITLE11=It's Only A Paper Moon
TTITLE12=Don't Blame Me
TTITLE13=Parisian Hop
TTITLE14=Two Loves
TTITLE15=Night Walk
TTITLE16=How Deep Is The Ocean
TTITLE17=Three Little Words
EXTD=YEAR: 1994
EXTT0=
EXTT1=
EXTT2=
EXTT3=
EXTT4=
EXTT5=
EXTT6=
EXTT7=
EXTT8=
EXTT9=
EXTT10=
EXTT11=
EXTT12=
EXTT13=
EXTT14=
EXTT15=
EXTT16=
EXTT17=
PLAYORDER=
